<svg width="360" height="92" viewBox="0 0 360 92" fill="none" xmlns="http://www.w3.org/2000/svg">
  <rect width="92" height="92" rx="24" fill="#0F4C81"/>
  <path d="M22 54C22 39.6406 33.6406 28 48 28H70V42H48C41.3726 42 36 47.3726 36 54V64H22V54Z" fill="#36B9E6"/>
  <path d="M70 28H56V64H70V28Z" fill="#D6F2FB"/>
  <path d="M28 66C33.5 57.5 41.5 53 52 53C62.5 53 70.5 57.5 76 66" stroke="#D6F2FB" stroke-width="8" stroke-linecap="round"/>
  <path d="M116 29H136.76C152.26 29 162.04 38.06 162.04 51.98C162.04 65.9 152.26 75 136.76 75H116V29ZM136.14 62.28C143.74 62.28 148.54 58.18 148.54 51.98C148.54 45.78 143.74 41.72 136.14 41.72H129.28V62.28H136.14Z" fill="#0F4C81"/>
  <path d="M170 29H183.28V75H170V29Z" fill="#0F4C81"/>
  <path d="M191 75L211.66 29H225.1L245.82 75H231.92L228.28 66.16H208.38L204.74 75H191ZM213.1 54.94H223.5L218.3 42.36L213.1 54.94Z" fill="#0F4C81"/>
  <path d="M249 75V29H260.24L278.16 58.8L295.94 29H307.16L307.28 75H294.5L294.4 52.18L283.1 71.18H272.84L261.54 53.3V75H249Z" fill="#0F4C81"/>
  <text x="116" y="88" fill="#64748B" font-family="Arial, sans-serif" font-size="12">Sistema administrativo de abastecimiento de agua</text>
</svg>
